<svg xmlns="http://www.w3.org/2000/svg" data-name="Layer 1" viewBox="0 0 64 64">
<path d="M28,35.5a2,2,0,1,0,0-4,13.43052,13.43052,0,0,1-5.69482-1.17908A19.09386,19.09386,0,0,0,26.60339,22.5H28a2,2,0,0,0,0-4H21v-2a2,2,0,1,0-4,0v2H10a2,2,0,0,0,0,4H22.396a14.81827,14.81827,0,0,1-3.38532,5.50268,13.93046,13.93046,0,0,1-2.48724-3.425,1.99983,1.99983,0,1,0-3.54883,1.84473,18.53078,18.53078,0,0,0,2.695,3.908A13.33728,13.33728,0,0,1,10,31.5a2,2,0,0,0,0,4,16.74023,16.74023,0,0,0,8.96918-2.40607A16.7175,16.7175,0,0,0,28,35.5Z"/>
<path d="M62,20.5H42a2,2,0,0,0,0,4H60v29H31.44617l6.29016-11.00781A2.31134,2.31134,0,0,0,38,41.5V8.5a2.0001,2.0001,0,0,0-2-2H2a2.0001,2.0001,0,0,0-2,2v33a2.0001,2.0001,0,0,0,2,2H26v12a2.03222,2.03222,0,0,0,2.00177,2H62a2.0001,2.0001,0,0,0,2-2v-33A2.0001,2.0001,0,0,0,62,20.5ZM4,10.5H34v29H4Zm28.55383,33L30,47.96923V43.5Z"/>
<path d="M42,40.5v7a2,2,0,0,0,4,0v-2h6v2a2,2,0,0,0,4,0v-7a7,7,0,0,0-14,0Zm7-3a3.00328,3.00328,0,0,1,3,3v1H46v-1A3.00328,3.00328,0,0,1,49,37.5Z"/>
<circle cx="49" cy="29.5" r="2"/></svg>