<?xml version="1.0" encoding="iso-8859-1"?>
<!-- Generator: Adobe Illustrator 19.0.0, SVG Export Plug-In . SVG Version: 6.00 Build 0)  -->
<svg version="1.1" id="Layer_1" xmlns="http://www.w3.org/2000/svg" xmlns:xlink="http://www.w3.org/1999/xlink" x="0px" y="0px"
	 viewBox="0 0 512.001 512.001" style="enable-background:new 0 0 512.001 512.001;" xml:space="preserve">
<g>
	<g>
		<g>
			<path d="M508.162,247.909l-65.998-53.919l24.064-81.848c0.89-3.026,0.365-6.294-1.43-8.89c-1.794-2.594-4.667-4.241-7.813-4.476
				l-85.154-6.389L343.38,11.985c-1.065-3.009-3.447-5.368-6.467-6.401c-3.02-1.03-6.348-0.629-9.033,1.097l-71.876,46.201
				l-71.777-46.2c-2.683-1.725-6.009-2.134-9.03-1.102c-3.021,1.03-5.404,3.385-6.472,6.393l-28.545,80.412l-85.165,6.39
				c-3.146,0.236-6.019,1.881-7.813,4.476c-1.795,2.594-2.321,5.863-1.43,8.89l24.064,81.848l-65.997,53.92
				C1.41,249.893,0,252.864,0,256s1.41,6.107,3.838,8.092l65.998,53.92L45.772,399.86c-0.89,3.026-0.365,6.293,1.429,8.89
				c1.795,2.594,4.665,4.241,7.813,4.476l85.068,6.389l28.647,80.423c1.07,3.005,3.454,5.356,6.473,6.384
				c3.02,1.027,6.343,0.622,9.025-1.104L256,459.121l71.773,46.197c1.706,1.098,3.673,1.662,5.656,1.662
				c1.133,0,2.272-0.184,3.37-0.558c3.019-1.028,5.403-3.379,6.473-6.384l28.647-80.423l85.068-6.388
				c3.146-0.236,6.018-1.882,7.813-4.476c1.794-2.596,2.32-5.863,1.429-8.89l-24.064-81.848l65.998-53.92
				c2.429-1.984,3.838-4.955,3.838-8.092C512,252.864,510.59,249.893,508.162,247.909z M423.573,306.215
				c-3.254,2.658-4.599,7.008-3.414,11.039l22.374,76.101l-78.959,5.931c-4.121,0.309-7.674,3.02-9.06,6.913l-26.508,74.417
				l-66.351-42.707c-1.722-1.108-3.688-1.662-5.655-1.662c-1.967,0-3.933,0.554-5.655,1.662l-66.351,42.707l-26.508-74.417
				c-1.388-3.894-4.939-6.604-9.06-6.913l-78.96-5.931l22.374-76.101c1.185-4.03-0.16-8.381-3.414-11.039L26.965,256l61.463-50.215
				c3.254-2.658,4.599-7.008,3.414-11.038l-22.374-76.1l79.065-5.932c4.126-0.309,7.681-3.025,9.066-6.923l26.409-74.398
				l66.339,42.699c3.441,2.214,7.86,2.216,11.305,0.003l66.431-42.702l26.323,74.387c1.381,3.904,4.939,6.625,9.069,6.934
				l79.06,5.932l-22.374,76.1c-1.185,4.03,0.16,8.38,3.414,11.038L485.035,256L423.573,306.215z"/>
			<path d="M256,96.653c-86.424,0-156.735,70.311-156.735,156.735S169.576,410.123,256,410.123s156.735-70.311,156.735-156.735
				S342.424,96.653,256,96.653z M256,389.225c-74.9,0-135.837-60.935-135.837-135.837S181.1,117.551,256,117.551
				s135.837,60.935,135.837,135.837S330.9,389.225,256,389.225z"/>
			<path d="M146.286,242.939h20.898c0-37.45,30.468-67.918,67.918-67.918v-20.898C186.129,154.123,146.286,193.966,146.286,242.939z
				"/>
		</g>
	</g>
</g>
<g>
</g>
<g>
</g>
<g>
</g>
<g>
</g>
<g>
</g>
<g>
</g>
<g>
</g>
<g>
</g>
<g>
</g>
<g>
</g>
<g>
</g>
<g>
</g>
<g>
</g>
<g>
</g>
<g>
</g>
</svg>
